<?xml version="1.0" encoding="UTF-8"?>
<!DOCTYPE svg PUBLIC "-//W3C//DTD SVG 1.1//EN" "http://www.w3.org/Graphics/SVG/1.1/DTD/svg11.dtd">
<!-- Creator: CorelDRAW -->
<svg xmlns="http://www.w3.org/2000/svg" xml:space="preserve" width="162mm" height="34mm" version="1.1" style="shape-rendering:geometricPrecision; text-rendering:geometricPrecision; image-rendering:optimizeQuality; fill-rule:evenodd; clip-rule:evenodd"
viewBox="0 0 16200000 3400000"
 xmlns:xlink="http://www.w3.org/1999/xlink"
 xmlns:xodm="http://www.corel.com/coreldraw/odm/2003">
 <defs>
  <style type="text/css">
   <![CDATA[
    .fil1 {fill:#626477}
    .fil0 {fill:#626477;fill-rule:nonzero}
   ]]>
  </style>
 </defs>
 <g id="Layer_x0020_1">
  <metadata id="CorelCorpID_0Corel-Layer"/>
  <g id="_3009782121360">
   <path id="_4" class="fil0" d="M13943920 3366210c-88320,-510 -161600,-12100 -219790,-34790 -58210,-22720 -104650,-50230 -139370,-82610 -34720,-32370 -59340,-64110 -73870,-95300 -14550,-31140 -22310,-55450 -23280,-72890 -1010,-12000 2850,-22070 11640,-30190 8730,-8140 19110,-12150 31110,-12080l263340 1520c10900,50 19890,2810 26920,8320 7060,5510 12750,13700 17050,24650 5410,9840 11590,19710 18620,29540 7030,9870 17080,17550 30140,23080 13060,5520 29930,8350 50660,8450 25060,160 45540,-4070 61410,-12720 15860,-8630 27920,-22210 36210,-40670 8270,-18500 12520,-43020 12700,-73540l620 -109600c-26300,24940 -58320,44670 -96020,59170 -37690,14500 -82170,21580 -133430,21300 -53420,-310 -101070,-7930 -142970,-22920 -41880,-14940 -77200,-37790 -105920,-68490 -28740,-30680 -51410,-69520 -68020,-116530 -16640,-46980 -25840,-103180 -27640,-168600 -930,-28360 -770,-56690 490,-85050 2550,-61070 12130,-115270 28750,-162580 16640,-47340 39760,-86730 69390,-118170 29620,-31480 65470,-55250 107530,-71890 42090,-16670 89840,-24830 143260,-24520 55610,330 104320,11230 146200,32730 41850,21230 75780,48970 101740,82920l330 -55610c60,-11720 4200,-21790 12420,-29910 8240,-8140 18340,-12160 30340,-12080l236890 1370c12000,70 22050,4200 30190,12440 8110,8210 12150,18310 12080,30030l-2910 781800c-490,88330 -19730,160730 -57650,217210 -37960,56490 -90280,98420 -156680,125850 -66660,27410 -144160,40880 -232480,40360zm-11030 -636320c26170,150 47450,-5160 63880,-16000 16410,-10790 28750,-25160 37040,-43090 8270,-17950 13570,-38380 15890,-61280 1140,-9780 1800,-25570 1930,-47390 130,-21820 -360,-37060 -1390,-45820 -2060,-22900 -7110,-43380 -15170,-61410 -8090,-18050 -20270,-32580 -36550,-43550 -16300,-11000 -37530,-16590 -63690,-16740 -28340,-160 -50750,5430 -67150,16790 -16440,11360 -28230,27100 -35440,47210 -7220,20140 -11980,43300 -14330,69440 -2310,22900 -2440,45260 -380,67050 2030,26190 6540,49400 13520,69600 6950,20210 18600,36080 34880,47650 16270,11530 38610,17380 66960,17540z"/>
   <path class="fil0" d="M5497660 3050970c-287840,-1610 -534720,-46290 -740640,-134020 -205930,-87750 -366550,-218530 -481820,-392320 -115280,-173820 -176530,-388480 -183750,-643990 -2190,-119220 -2880,-247680 -2060,-385340 830,-137640 3040,-267510 6670,-389540 10200,-246190 74650,-453050 193410,-619850 118740,-166810 283050,-292200 492920,-376160 209840,-83960 454350,-125140 733480,-123580 223910,1280 422930,27960 596350,80030 174150,52080 322740,122450 445780,211130 123070,88720 216980,187880 281760,297540 64780,109630 98260,222650 100480,338330 -160,25550 -9740,47480 -28720,65840 -19010,18350 -41600,27450 -67770,27300l-801790 -4540c-29080,-160 -52310,-5270 -69670,-15290 -17420,-10040 -33330,-23620 -47760,-40740 -14370,-28440 -36700,-61230 -67040,-97580 -30290,-37070 -73000,-69250 -128070,-96530 -55090,-27260 -127700,-41180 -217850,-41690 -136670,-780 -242990,32680 -318980,100370 -76010,66990 -117370,174640 -124040,322200 -10150,238370 -11590,482500 -4330,732330 4820,161800 47010,279150 126540,351990 79540,72820 187620,109630 324290,110410 90150,500 170890,-13250 242320,-41240 71400,-27950 127650,-72330 168730,-133160 41060,-60800 61870,-139420 62440,-235960l260 -42560 -309660 -1770c-31990,-170 -58800,-11660 -80490,-34520 -21680,-22830 -32420,-48430 -32240,-76810l2340 -395970c180,-31200 11230,-57400 33170,-78550 21950,-21170 48920,-31660 80880,-31480l1146350 6480c31990,180 59520,10960 82650,32390 23130,21420 34620,47750 34440,78960l-3090 519450c-1470,249780 -63800,460890 -186950,633350 -123140,172470 -292570,303490 -508290,393110 -214940,89610 -465300,133610 -750250,131980z"/>
   <path id="_2" class="fil0" d="M9788350 3043460c-29070,-180 -55170,-11230 -78300,-33170 -23130,-21950 -34590,-48910 -34410,-80900l16380 -2825480c180,-31990 11950,-58800 35340,-80490 23390,-21680 49610,-32420 78690,-32240l1195050 6920c282040,1630 526010,48840 731190,141620 205900,92800 367970,228200 486170,406260 118170,178090 180890,395790 188100,654620 5100,125050 7370,235550 6800,331490 -540,95970 -4100,205000 -10610,327060 -13220,273260 -76320,498250 -189270,674970 -112990,176720 -271500,307360 -475520,391970 -203300,84610 -447810,126080 -732740,124410l-1216870 -7040zm828640 -736670l370720 2130c95940,570 177460,-14930 244510,-46540 67070,-31600 119720,-81440 157890,-149570 38200,-68100 59060,-155930 62590,-263520 3400,-84300 6000,-159870 7850,-226740 1830,-66890 2220,-133760 1160,-200650 -1080,-66860 -2800,-141040 -5250,-222460 -4890,-159930 -50000,-276530 -135350,-348980 -85360,-73180 -200730,-110190 -346100,-111040l-348930 -2010 -9090 1569380z"/>
   <path id="_3" class="fil0" d="M12837610 3016510c-59990,-360 -113620,-12110 -160910,-35310 -47310,-23160 -84200,-54170 -110670,-93040 -26510,-38860 -39620,-82290 -39340,-130280 470,-78500 32690,-140170 96770,-185060 64040,-44890 149550,-75730 256520,-92550l188230 -28350 80 -11470c180,-33790 -4840,-59160 -15100,-76110 -10250,-16970 -31750,-25570 -64440,-25760 -22900,-120 -41470,4150 -55690,12780 -14240,8630 -27400,21100 -39480,37400 -11000,11930 -25190,17820 -42630,17720l-230630 -1340c-12000,-50 -21220,-3400 -27710,-9970 -6520,-6560 -9200,-15300 -8070,-26220 1220,-19620 9530,-42730 24960,-69340 15410,-26630 39280,-52640 71610,-78090 32300,-25450 74130,-46210 125490,-62800 51330,-16580 112970,-24700 184930,-24260 73050,410 135740,8940 187980,25600 52230,16670 95170,39510 128780,69160 33380,29620 58240,65500 74340,107590 16120,42060 24030,88700 23740,139960l-2800 484130c-80,12000 -4230,22050 -12440,30190 -8250,8110 -18340,12160 -30350,12080l-238510 -1370c-10920,-70 -20700,-4220 -29360,-12440 -8680,-8240 -12980,-18340 -12900,-30340l310 -52340c-14320,21740 -33230,40700 -56770,56900 -23540,16230 -50900,29160 -82010,38820 -31140,9630 -65790,14320 -103930,14110zm96100 -213730c27250,150 51000,-5410 71240,-16740 20220,-11340 36400,-28980 48550,-52880 12130,-23910 18320,-53890 18520,-89870l80 -11440 -117920 22230c-40380,7370 -68790,18390 -85230,33020 -16430,14630 -24720,30680 -24830,48120 -70,13080 3690,24540 11260,34380 7570,9870 18160,17850 31760,23930 13600,6080 29100,9150 46570,9250z"/>
   <path id="_5" class="fil0" d="M14505830 3009630c-12000,-50 -22040,-4220 -30180,-12440 -8120,-8210 -12160,-18310 -12080,-30310l4430 -765450c70,-11720 4220,-21790 12440,-29910 8240,-8130 18340,-12150 30340,-12080l237170 1370c11980,80 22050,4200 30160,12440 8140,8220 12180,18340 12110,30060l-360 60500c32910,-31420 70370,-56300 112450,-74310 42090,-18310 88220,-27270 138370,-26990l73610 440c11980,50 22310,4200 31010,12440 8680,8210 12990,18310 12910,30030l-1240 210980c-50,12000 -4480,22330 -13260,31010 -8790,8680 -19170,12980 -31140,12900l-183160 -1050c-39260,-240 -69340,9710 -90150,29750 -20840,20040 -31350,49680 -31580,88940l-2270 390910c-70,12000 -4220,22050 -12460,30190 -8220,8110 -18340,12150 -30320,12080l-256800 -1500z"/>
   <path id="_6" class="fil0" d="M15684080 3032250c-95980,-570 -176850,-15200 -242640,-43940 -65810,-28750 -115980,-70730 -150570,-126010 -34590,-55270 -53830,-121600 -57720,-199050 -960,-22900 -1340,-47980 -1190,-75230 160,-27250 850,-52340 2060,-75240 4790,-78480 25910,-144860 63310,-199180 37380,-54300 89150,-95430 155270,-123120 66140,-27970 145010,-41670 236600,-41160 91590,540 170260,15170 236060,43920 65810,28430 116810,70160 153570,124890 36780,54760 57100,121370 60990,199900 2060,22930 2990,48020 2830,75270 -150,27250 -1390,52310 -3700,75210 -4800,77400 -24810,143490 -60020,198380 -35210,54860 -85870,96250 -151760,124250 -66120,27970 -147150,41650 -243090,41110zm1330 -230630c40340,230 68210,-11590 83610,-35490 15410,-23910 24340,-59840 26790,-107800 1180,-16350 1880,-38680 2030,-67040 180,-28360 -250,-50720 -1260,-67070 -1900,-46910 -10400,-82660 -25520,-107280 -15150,-24600 -42860,-37070 -83200,-37300 -39250,-230 -66610,11900 -81980,36340 -15430,24450 -24910,60100 -28440,106970 -1180,16330 -1850,38690 -2010,67050 -180,28360 230,50690 1210,67050 3020,48010 12080,84040 27200,108120 15120,24090 42320,36220 81570,36450z"/>
   <path id="_1" class="fil0" d="M7218020 3035640c-29080,-160 -55170,-11190 -78300,-33090 -23150,-21920 -34590,-48810 -34410,-80730l16380 -2819660c180,-31930 11950,-58710 35340,-80330 23390,-21630 49610,-32360 78690,-32200l2136390 12360c31990,180 59530,11210 82680,33140 23130,21890 34590,48810 34410,80730l-2980 513570c-160,29020 -11930,55090 -35320,78140 -23440,23080 -51100,34550 -83090,34370l-1346940 -7820 -2500 430160 1251000 7240c31990,180 59520,11240 82650,33110 23130,21930 34620,48810 34440,80740l-2730 470080c-180,31920 -11980,58680 -35370,80320 -23380,21620 -51050,32330 -83040,32150l-1250990 -7220 -2580 439560 1381870 8000c31990,210 59520,11980 82650,35310 23110,23350 34600,51010 34420,82900l-2970 509250c-180,31900 -11970,58680 -35360,80330 -23390,21610 -51050,32330 -83040,32150l-2171300 -12560z"/>
   <path class="fil1" d="M1818870 2452440c300,129340 29600,249040 76870,362800 48040,135020 32550,222900 -520,246740 -15860,-9180 -28890,-19590 -37480,-31850l-36700 -62070 -95480 -175070c-42240,-54260 -67250,-107610 -123800,-161660 -49030,-46810 -47520,-54450 -63740,-64770 -4550,-2900 -9180,-5660 -13760,-8210 -46630,-25870 -95320,-34920 -127500,-38190 -120160,-12260 -249440,15110 -371540,10140 -72190,-2910 -147570,-12520 -202080,-24750 -33640,-7540 -73500,-18930 -122350,-33540 -89600,-26810 -167220,-87020 -246460,-144340 -147730,-106840 -263740,-249790 -328130,-409710 -16460,-40850 -32600,-80300 -42670,-120480 -104430,-416680 -45500,-768090 -45490,-735630 40,34470 24920,72560 47150,115950 17820,34810 29300,74180 54730,108970 38380,52440 80680,99720 113550,130850 40310,38210 83520,67920 131130,81600 102090,29330 190420,48420 290600,47070 184930,-2490 281470,19610 377930,38560 46740,9170 125240,38200 196710,76300 62440,33260 119990,70890 148010,98930 40450,40470 94160,86240 129250,124990 45190,49910 84760,103330 127090,154960 11670,-83550 47160,-156440 60820,-228330 12330,-64860 29940,-127500 47430,-193400 4780,-17890 9770,-35460 14870,-52690 35710,-121050 77440,-227990 139910,-331370 39530,-65410 92480,-137630 186710,-214700 40260,-32920 85120,-66480 133260,-96470 82000,-51090 172450,-94340 253510,-127550 199020,-81560 320870,-88630 505960,-123760 75770,-14370 166870,-31390 248600,-45450 32310,-5540 66960,-18500 105110,-26520 153980,-32360 326950,-134240 394130,-254030 27850,-49660 62400,-118510 79160,-181530l51900 -194910c52580,118350 40530,296870 11770,471970 -13850,84310 -31600,167870 -47900,243510 -15890,73810 -39670,150240 -61730,222270 -53580,174970 -111440,320070 -163410,488490 -26050,84390 -60440,167060 -94510,247390 -30820,72690 -68920,139950 -104950,205530 -45520,82840 -111870,147440 -178790,201740 -43920,35640 -120320,88040 -234790,130540 -218000,80940 -541690,139940 -815930,111340 -75070,-7820 -145550,-10740 -206170,-24720 -48320,-11150 -90120,-10500 -118890,-20550 -7000,21460 -21510,27500 -23440,74170l-17950 131440zm-1415920 -664040c17460,10340 33290,24110 51560,34240 66530,36820 120280,59510 192060,81700 58670,18200 106340,32300 132250,37390 88910,17530 174750,39120 258880,58700 141080,32870 263670,96690 390630,162580 38430,19920 71620,46510 108460,65160 30210,15290 61360,27360 90630,41730 -20110,-7100 -40920,-12410 -61770,-17670 -32660,-8220 -65030,-24590 -86850,-36520 -31010,-17020 -62930,-29860 -94130,-45700 -43330,-22120 -102570,-44820 -148240,-60840 -66540,-23310 -123190,-43280 -174000,-56390l-190310 -49120 -164320 -39640 -146290 -47880 -57910 -28440c-47150,-23170 -89700,-52030 -128760,-82340 -22060,-17130 -34360,-32060 -46030,-44860 -18930,-20800 -32580,-38650 -52890,-65930 -33290,-44700 -25710,-40080 -43500,-68300 -23340,-36970 -41150,-77050 -58890,-113480 -38660,-79310 -64120,-144360 -61340,-139320l75210 137520c12350,22530 25760,43320 29700,49240 14650,21930 29610,47010 33170,52130 12630,18030 25360,39580 31310,46450 5830,6730 26640,37440 49250,63380 21690,24890 44730,45530 45790,46120l26330 20090zm1824840 -85510l0 0c33500,-22970 64050,-42970 99540,-64050 61190,-33920 126260,-66810 195710,-97610 39920,-15250 87440,-34030 144150,-60790 200700,-87210 166820,-42660 414710,-204920 10670,-8140 21290,-16440 31750,-24870 52330,-42100 103320,-85890 151480,-133970 46050,-46000 89720,-95310 133120,-145330 88140,-102450 166500,-207640 242050,-314840l-435680 464780c-47380,43880 -118570,103790 -200440,148720l-124370 67680 -123590 58460c-17380,8200 -34760,15300 -51460,22710 -49480,21980 -96530,41950 -148720,64580 -65890,28590 -132200,56560 -198340,89320 -186020,100290 -371560,221020 -479320,409710l-48080 120230 176570 -201790c35050,-40050 211930,-191350 220920,-198020z"/>
  </g>
 </g>
</svg>
