<?xml version="1.0" encoding="UTF-8"?>
<!DOCTYPE svg PUBLIC "-//W3C//DTD SVG 1.1//EN" "http://www.w3.org/Graphics/SVG/1.1/DTD/svg11.dtd">
<!-- Creator: CorelDRAW -->
<svg xmlns="http://www.w3.org/2000/svg" xml:space="preserve" width="177mm" height="37mm" version="1.1" style="shape-rendering:geometricPrecision; text-rendering:geometricPrecision; image-rendering:optimizeQuality; fill-rule:evenodd; clip-rule:evenodd"
viewBox="0 0 17700000 3700000"
 xmlns:xlink="http://www.w3.org/1999/xlink"
 xmlns:xodm="http://www.corel.com/coreldraw/odm/2003">
 <defs>
  <style type="text/css">
   <![CDATA[
    .fil1 {fill:#61A179}
    .fil0 {fill:#666CFF;fill-rule:nonzero}
   ]]>
  </style>
 </defs>
 <g id="Layer_x0020_1">
  <metadata id="CorelCorpID_0Corel-Layer"/>
  <g id="_2579318425520">
   <path id="_4" class="fil0" d="M14564800 3586200c-125150,-720 -228980,-17140 -311430,-49290 -82480,-32200 -148280,-71170 -197470,-117050 -49200,-45870 -84080,-90840 -104670,-135040 -20620,-44120 -31610,-78570 -32990,-103280 -1430,-17000 4040,-31270 16490,-42770 12370,-11540 27080,-17220 44080,-17120l373140 2150c15440,70 28180,3990 38140,11790 10000,7810 18070,19410 24160,34930 7660,13940 16420,27930 26380,41860 9960,13980 24200,24860 42710,32700 18500,7820 42410,11830 71780,11970 35510,230 64530,-5770 87010,-18020 22470,-12230 39560,-31470 51310,-57630 11720,-26210 17740,-60950 17990,-104200l880 -155290c-37260,35330 -82630,63290 -136050,83840 -53400,20540 -116430,30570 -189060,30180 -75690,-440 -143210,-11240 -202580,-32480 -59340,-21170 -109380,-53540 -150080,-97040 -40720,-43480 -72840,-98510 -96380,-165120 -23570,-66560 -36610,-146200 -39160,-238890 -1320,-40180 -1090,-80330 690,-120510 3620,-86530 17190,-163330 40740,-230360 23580,-67080 56340,-122890 98320,-167440 41970,-44600 92770,-78290 152360,-101860 59640,-23620 127300,-35180 202990,-34750 78790,470 147810,15920 207150,46380 59300,30080 107380,69390 144160,117490l470 -78790c80,-16610 5950,-30880 17600,-42380 11670,-11540 25980,-17230 42990,-17120l335650 1940c17000,100 31240,5950 42780,17630 11490,11630 17210,25940 17110,42550l-4120 1107750c-690,125150 -27960,227740 -81680,307770 -53790,80040 -127920,139450 -222010,178310 -94450,38840 -204260,57930 -329400,57190zm-15630 -901610c37080,210 67230,-7310 90510,-22670 23250,-15290 40740,-35650 52480,-61060 11720,-25430 19230,-54380 22520,-86830 1610,-13860 2550,-36230 2730,-67150 190,-30910 -510,-52510 -1970,-64920 -2920,-32450 -10070,-61460 -21490,-87010 -11460,-25580 -28720,-46170 -51790,-61710 -23100,-15590 -53180,-23510 -90240,-23720 -40160,-220 -71910,7700 -95150,23790 -23290,16100 -40000,38400 -50220,66890 -10230,28540 -16970,61360 -20300,98400 -3270,32440 -3460,64130 -540,95000 2880,37110 9270,70000 19160,98620 9850,28630 26350,51120 49420,67510 23050,16340 54710,24630 94880,24860z"/>
   <path class="fil0" d="M5487660 3120970c-287840,-1610 -534720,-46290 -740640,-134020 -205930,-87750 -366550,-218530 -481820,-392320 -115280,-173820 -176530,-388480 -183750,-643990 -2190,-119220 -2880,-247680 -2060,-385340 830,-137640 3040,-267510 6670,-389540 10200,-246190 74650,-453050 193410,-619850 118740,-166810 283050,-292200 492920,-376160 209840,-83960 454350,-125140 733480,-123580 223910,1280 422930,27960 596350,80030 174150,52080 322740,122450 445780,211130 123070,88720 216980,187880 281760,297540 64780,109630 98260,222650 100480,338330 -160,25550 -9740,47480 -28720,65840 -19010,18350 -41600,27450 -67770,27300l-801790 -4540c-29080,-160 -52310,-5270 -69670,-15290 -17420,-10040 -33330,-23620 -47760,-40740 -14370,-28440 -36700,-61230 -67040,-97580 -30290,-37070 -73000,-69250 -128070,-96530 -55090,-27260 -127700,-41180 -217850,-41690 -136670,-780 -242990,32680 -318980,100370 -76010,66990 -117370,174640 -124040,322200 -10150,238370 -11590,482500 -4330,732330 4820,161800 47010,279150 126540,351990 79540,72820 187620,109630 324290,110410 90150,500 170890,-13250 242320,-41240 71400,-27950 127650,-72330 168730,-133160 41060,-60800 61870,-139420 62440,-235960l260 -42560 -309660 -1770c-31990,-170 -58800,-11660 -80490,-34520 -21680,-22830 -32420,-48430 -32240,-76810l2340 -395970c180,-31200 11230,-57400 33170,-78550 21950,-21170 48920,-31660 80880,-31480l1146350 6480c31990,180 59520,10960 82650,32390 23130,21420 34620,47750 34440,78960l-3090 519450c-1470,249780 -63800,460890 -186950,633350 -123140,172470 -292570,303490 -508290,393110 -214940,89610 -465300,133610 -750250,131980z"/>
   <path id="_2" class="fil0" d="M9778350 3113460c-29070,-180 -55170,-11230 -78300,-33170 -23130,-21950 -34590,-48910 -34410,-80900l16380 -2825480c180,-31990 11950,-58800 35340,-80490 23390,-21680 49610,-32420 78690,-32240l1195050 6920c282040,1630 526010,48840 731190,141620 205900,92800 367970,228200 486170,406260 118170,178090 180890,395790 188100,654620 5100,125050 7370,235550 6800,331490 -540,95970 -4100,205000 -10610,327060 -13220,273260 -76320,498250 -189270,674970 -112990,176720 -271500,307360 -475520,391970 -203300,84610 -447810,126080 -732740,124410l-1216870 -7040zm828640 -736670l370720 2130c95940,570 177460,-14930 244510,-46540 67070,-31600 119720,-81440 157890,-149570 38200,-68100 59060,-155930 62590,-263520 3400,-84300 6000,-159870 7850,-226740 1830,-66890 2220,-133760 1160,-200650 -1080,-66860 -2800,-141040 -5250,-222460 -4890,-159930 -50000,-276530 -135350,-348980 -85360,-73180 -200730,-110190 -346100,-111040l-348930 -2010 -9090 1569380z"/>
   <path id="_3" class="fil0" d="M12997240 3090700c-85000,-510 -160990,-17150 -227990,-50030 -67040,-32810 -119310,-76750 -156810,-131830 -37570,-55060 -56140,-116600 -55750,-184590 670,-111230 46320,-198610 137120,-262220 90740,-63600 211900,-107300 363470,-131130l266700 -40170 120 -16260c250,-47870 -6860,-83820 -21400,-107840 -14520,-24040 -44980,-36230 -91300,-36500 -32450,-170 -58760,5880 -78910,18110 -20180,12230 -38830,29900 -55940,52990 -15590,16910 -35690,25250 -60410,25110l-326780 -1900c-17000,-70 -30070,-4820 -39260,-14120 -9240,-9300 -13040,-21680 -11440,-37160 1730,-27800 13510,-60540 35370,-98250 21830,-37730 55660,-74580 101470,-110640 45760,-36060 105030,-65480 177800,-88990 72730,-23490 160070,-34990 262040,-34370 103500,580 192330,12670 266350,36270 74000,23620 134850,55990 182470,98000 47300,41970 82520,92810 105330,152440 22840,59600 34050,125680 33640,198320l-3970 685970c-110,17000 -5990,31240 -17620,42780 -11690,11490 -25990,17230 -43010,17110l-337950 -1940c-15470,-100 -29330,-5980 -41600,-17620 -12300,-11680 -18390,-25990 -18280,-42990l440 -74170c-20290,30810 -47080,57670 -80430,80630 -33360,22990 -72130,41310 -116210,55000 -44120,13650 -93220,20290 -147260,19990zm136170 -302830c38610,210 72260,-7670 100940,-23720 28650,-16070 51580,-41070 68790,-74930 17190,-33880 25960,-76360 26240,-127340l120 -16210 -167090 31500c-57210,10440 -97470,26060 -120760,46790 -23280,20730 -35030,43470 -35180,68180 -100,18530 5230,34770 15950,48710 10730,13990 25730,25290 45000,33910 19270,8610 41240,12960 65990,13110z"/>
   <path id="_5" class="fil0" d="M15360980 3080960c-17010,-70 -31230,-5980 -42760,-17630 -11510,-11630 -17230,-25940 -17120,-42950l6280 -1084580c100,-16610 5980,-30870 17620,-42380 11680,-11520 25990,-17210 42990,-17120l336050 1950c16980,110 31250,5950 42740,17620 11530,11650 17260,25990 17160,42590l-510 85730c46630,-44520 99700,-79770 159330,-105290 59640,-25950 125000,-38640 196060,-38250l104300 630c16970,70 31610,5950 43940,17620 12290,11640 18400,25950 18290,42550l-1760 298950c-70,17000 -6350,31640 -18790,43940 -12450,12290 -27160,18390 -44120,18270l-259520 -1480c-55630,-340 -98250,13750 -127740,42150 -29530,28390 -44420,70390 -44740,126020l-3220 553890c-100,17000 -5980,31240 -17660,42780 -11640,11490 -25980,17210 -42960,17110l-363860 -2120z"/>
   <path id="_6" class="fil0" d="M17030460 3113010c-135990,-810 -250580,-21540 -343800,-62260 -93240,-40740 -164330,-100220 -213340,-178550 -49010,-78310 -76280,-172300 -81790,-282040 -1360,-32440 -1900,-67980 -1680,-106590 220,-38610 1200,-74160 2920,-106610 6780,-111200 36710,-205260 89700,-282220 52960,-76940 126320,-135220 220010,-174450 93710,-39640 205460,-59050 335240,-58320 129770,760 241240,21490 334480,62230 93240,40280 165510,99410 217590,176960 52120,77590 80910,171970 86420,283240 2920,32490 4240,68040 4010,106650 -210,38610 -1970,74120 -5240,106570 -6800,109670 -35150,203310 -85040,281080 -49890,77740 -121680,136380 -215040,176060 -93680,39630 -208500,59010 -344440,58250zm1890 -326790c57160,330 96650,-16420 118470,-50280 21830,-33880 34490,-84790 37960,-152750 1670,-23160 2660,-54800 2870,-94990 260,-40180 -350,-71860 -1780,-95030 -2690,-66470 -14740,-117120 -36160,-152010 -21470,-34850 -60730,-52520 -117890,-52850 -55610,-330 -94380,16860 -116160,51490 -21860,34650 -35290,85160 -40300,151570 -1670,23140 -2620,54820 -2840,95000 -260,40190 320,71830 1710,95010 4280,68020 17120,119080 38540,153200 21420,34130 59960,51320 115580,51640z"/>
   <path id="_1" class="fil0" d="M7208020 3105640c-29080,-160 -55170,-11190 -78300,-33090 -23150,-21920 -34590,-48810 -34410,-80730l16380 -2819660c180,-31930 11950,-58710 35340,-80330 23390,-21630 49610,-32360 78690,-32200l2136390 12360c31990,180 59530,11210 82680,33140 23130,21890 34590,48810 34410,80730l-2980 513570c-160,29020 -11930,55090 -35320,78140 -23440,23080 -51100,34550 -83090,34370l-1346940 -7820 -2500 430160 1251000 7240c31990,180 59520,11240 82650,33110 23130,21930 34620,48810 34440,80740l-2730 470080c-180,31920 -11980,58680 -35370,80320 -23380,21620 -51050,32330 -83040,32150l-1250990 -7220 -2580 439560 1381870 8000c31990,210 59520,11980 82650,35310 23110,23350 34600,51010 34420,82900l-2970 509250c-180,31900 -11970,58680 -35360,80330 -23390,21610 -51050,32330 -83040,32150l-2171300 -12560z"/>
   <path class="fil1" d="M1788870 2522440c300,129340 29600,249040 76870,362800 48040,135020 32550,222900 -520,246740 -15860,-9180 -28890,-19590 -37480,-31850l-36700 -62070 -95480 -175070c-42240,-54260 -67250,-107610 -123800,-161660 -49030,-46810 -47520,-54450 -63740,-64770 -4550,-2900 -9180,-5660 -13760,-8210 -46630,-25870 -95320,-34920 -127500,-38190 -120160,-12260 -249440,15110 -371540,10140 -72190,-2910 -147570,-12520 -202080,-24750 -33640,-7540 -73500,-18930 -122350,-33540 -89600,-26810 -167220,-87020 -246460,-144340 -147730,-106840 -263740,-249790 -328130,-409710 -16460,-40850 -32600,-80300 -42670,-120480 -104430,-416680 -45500,-768090 -45490,-735630 40,34470 24920,72560 47150,115950 17820,34810 29300,74180 54730,108970 38380,52440 80680,99720 113550,130850 40310,38210 83520,67920 131130,81600 102090,29330 190420,48420 290600,47070 184930,-2490 281470,19610 377930,38560 46740,9170 125240,38200 196710,76300 62440,33260 119990,70890 148010,98930 40450,40470 94160,86240 129250,124990 45190,49910 84760,103330 127090,154960 11670,-83550 47160,-156440 60820,-228330 12330,-64860 29940,-127500 47430,-193400 4780,-17890 9770,-35460 14870,-52690 35710,-121050 77440,-227990 139910,-331370 39530,-65410 92480,-137630 186710,-214700 40260,-32920 85120,-66480 133260,-96470 82000,-51090 172450,-94340 253510,-127550 199020,-81560 320870,-88630 505960,-123760 75770,-14370 166870,-31390 248600,-45450 32310,-5540 66960,-18500 105110,-26520 153980,-32360 326950,-134240 394130,-254030 27850,-49660 62400,-118510 79160,-181530l51900 -194910c52580,118350 40530,296870 11770,471970 -13850,84310 -31600,167870 -47900,243510 -15890,73810 -39670,150240 -61730,222270 -53580,174970 -111440,320070 -163410,488490 -26050,84390 -60440,167060 -94510,247390 -30820,72690 -68920,139950 -104950,205530 -45520,82840 -111870,147440 -178790,201740 -43920,35640 -120320,88040 -234790,130540 -218000,80940 -541690,139940 -815930,111340 -75070,-7820 -145550,-10740 -206170,-24720 -48320,-11150 -90120,-10500 -118890,-20550 -7000,21460 -21510,27500 -23440,74170l-17950 131440zm-1415920 -664040c17460,10340 33290,24110 51560,34240 66530,36820 120280,59510 192060,81700 58670,18200 106340,32300 132250,37390 88910,17530 174750,39120 258880,58700 141080,32870 263670,96690 390630,162580 38430,19920 71620,46510 108460,65160 30210,15290 61360,27360 90630,41730 -20110,-7100 -40920,-12410 -61770,-17670 -32660,-8220 -65030,-24590 -86850,-36520 -31010,-17020 -62930,-29860 -94130,-45700 -43330,-22120 -102570,-44820 -148240,-60840 -66540,-23310 -123190,-43280 -174000,-56390l-190310 -49120 -164320 -39640 -146290 -47880 -57910 -28440c-47150,-23170 -89700,-52030 -128760,-82340 -22060,-17130 -34360,-32060 -46030,-44860 -18930,-20800 -32580,-38650 -52890,-65930 -33290,-44700 -25710,-40080 -43500,-68300 -23340,-36970 -41150,-77050 -58890,-113480 -38660,-79310 -64120,-144360 -61340,-139320l75210 137520c12350,22530 25760,43320 29700,49240 14650,21930 29610,47010 33170,52130 12630,18030 25360,39580 31310,46450 5830,6730 26640,37440 49250,63380 21690,24890 44730,45530 45790,46120l26330 20090zm1824840 -85510l0 0c33500,-22970 64050,-42970 99540,-64050 61190,-33920 126260,-66810 195710,-97610 39920,-15250 87440,-34030 144150,-60790 200700,-87210 166820,-42660 414710,-204920 10670,-8140 21290,-16440 31750,-24870 52330,-42100 103320,-85890 151480,-133970 46050,-46000 89720,-95310 133120,-145330 88140,-102450 166500,-207640 242050,-314840l-435680 464780c-47380,43880 -118570,103790 -200440,148720l-124370 67680 -123590 58460c-17380,8200 -34760,15300 -51460,22710 -49480,21980 -96530,41950 -148720,64580 -65890,28590 -132200,56560 -198340,89320 -186020,100290 -371560,221020 -479320,409710l-48080 120230 176570 -201790c35050,-40050 211930,-191350 220920,-198020z"/>
  </g>
 </g>
</svg>
